<svg width="203" height="62" viewBox="0 0 203 62" fill="none" xmlns="http://www.w3.org/2000/svg">
<path d="M97.032 23.24C95.336 23.24 93.8 22.872 92.424 22.136C91.064 21.384 89.992 20.352 89.208 19.04C88.44 17.728 88.056 16.248 88.056 14.6C88.056 12.952 88.448 11.472 89.232 10.16C90.016 8.848 91.088 7.824 92.448 7.088C93.824 6.336 95.36 5.96 97.056 5.96C98.432 5.96 99.688 6.2 100.824 6.68C101.96 7.16 102.92 7.856 103.704 8.768L101.688 10.664C100.472 9.352 98.976 8.696 97.2 8.696C96.048 8.696 95.016 8.952 94.104 9.464C93.192 9.96 92.48 10.656 91.968 11.552C91.456 12.448 91.2 13.464 91.2 14.6C91.2 15.736 91.456 16.752 91.968 17.648C92.48 18.544 93.192 19.248 94.104 19.76C95.016 20.256 96.048 20.504 97.2 20.504C98.976 20.504 100.472 19.84 101.688 18.512L103.704 20.432C102.92 21.344 101.952 22.04 100.8 22.52C99.664 23 98.408 23.24 97.032 23.24ZM117.686 23L114.254 18.08C114.11 18.096 113.894 18.104 113.606 18.104H109.814V23H106.694V6.2H113.606C115.062 6.2 116.326 6.44 117.398 6.92C118.486 7.4 119.318 8.088 119.894 8.984C120.47 9.88 120.758 10.944 120.758 12.176C120.758 13.44 120.446 14.528 119.822 15.44C119.214 16.352 118.334 17.032 117.182 17.48L121.046 23H117.686ZM117.614 12.176C117.614 11.104 117.262 10.28 116.557 9.704C115.854 9.128 114.822 8.84 113.462 8.84H109.814V15.536H113.462C114.822 15.536 115.854 15.248 116.557 14.672C117.262 14.08 117.614 13.248 117.614 12.176ZM135.144 19.112H126.744L125.088 23H121.872L129.432 6.2H132.504L140.088 23H136.824L135.144 19.112ZM134.112 16.664L130.944 9.32L127.8 16.664H134.112ZM145.345 8.816V13.928H153.457V16.568H145.345V23H142.225V6.2H154.489V8.816H145.345ZM161.031 8.84H155.463V6.2H169.719V8.84H164.151V23H161.031V8.84ZM177.105 23.24C175.809 23.24 174.553 23.056 173.337 22.688C172.137 22.32 171.185 21.832 170.481 21.224L171.561 18.8C172.249 19.344 173.089 19.792 174.081 20.144C175.089 20.48 176.097 20.648 177.105 20.648C178.353 20.648 179.281 20.448 179.889 20.048C180.513 19.648 180.825 19.12 180.825 18.464C180.825 17.984 180.649 17.592 180.297 17.288C179.961 16.968 179.529 16.72 179.001 16.544C178.473 16.368 177.753 16.168 176.841 15.944C175.561 15.64 174.521 15.336 173.721 15.032C172.937 14.728 172.257 14.256 171.681 13.616C171.121 12.96 170.841 12.08 170.841 10.976C170.841 10.048 171.089 9.208 171.585 8.456C172.097 7.688 172.857 7.08 173.865 6.632C174.889 6.184 176.137 5.96 177.609 5.96C178.633 5.96 179.641 6.088 180.633 6.344C181.625 6.6 182.481 6.968 183.201 7.448L182.217 9.872C181.481 9.44 180.713 9.112 179.913 8.888C179.113 8.664 178.337 8.552 177.585 8.552C176.353 8.552 175.433 8.76 174.825 9.176C174.233 9.592 173.937 10.144 173.937 10.832C173.937 11.312 174.105 11.704 174.441 12.008C174.793 12.312 175.233 12.552 175.761 12.728C176.289 12.904 177.009 13.104 177.921 13.328C179.169 13.616 180.193 13.92 180.993 14.24C181.793 14.544 182.473 15.016 183.033 15.656C183.609 16.296 183.897 17.16 183.897 18.248C183.897 19.176 183.641 20.016 183.129 20.768C182.633 21.52 181.873 22.12 180.849 22.568C179.825 23.016 178.577 23.24 177.105 23.24ZM95.04 44.968L92.376 47.704V52H89.256V35.2H92.376V43.816L100.68 35.2H104.184L97.128 42.712L104.616 52H100.968L95.04 44.968ZM106.74 35.2H109.86V52H106.74V35.2ZM117.812 37.84H112.244V35.2H126.5V37.84H120.932V52H117.812V37.84ZM136.384 52.24C134.688 52.24 133.152 51.872 131.776 51.136C130.416 50.384 129.344 49.352 128.56 48.04C127.792 46.728 127.408 45.248 127.408 43.6C127.408 41.952 127.8 40.472 128.584 39.16C129.368 37.848 130.44 36.824 131.8 36.088C133.176 35.336 134.712 34.96 136.408 34.96C137.784 34.96 139.04 35.2 140.176 35.68C141.312 36.16 142.272 36.856 143.056 37.768L141.04 39.664C139.824 38.352 138.328 37.696 136.552 37.696C135.4 37.696 134.368 37.952 133.456 38.464C132.544 38.96 131.832 39.656 131.32 40.552C130.808 41.448 130.552 42.464 130.552 43.6C130.552 44.736 130.808 45.752 131.32 46.648C131.832 47.544 132.544 48.248 133.456 48.76C134.368 49.256 135.4 49.504 136.552 49.504C138.328 49.504 139.824 48.84 141.04 47.512L143.056 49.432C142.272 50.344 141.304 51.04 140.152 51.52C139.016 52 137.76 52.24 136.384 52.24ZM160.973 35.2V52H157.853V44.8H149.165V52H146.045V35.2H149.165V42.136H157.853V35.2H160.973ZM178.075 49.384V52H165.475V35.2H177.739V37.816H168.595V42.184H176.707V44.752H168.595V49.384H178.075ZM196.481 35.2V52H193.913L184.649 40.624V52H181.553V35.2H184.121L193.385 46.576V35.2H196.481Z" fill="black"/>
<g clip-path="url(#clip0)">
<path d="M25.2447 16.1676C25.505 16.1676 25.7571 16.0312 25.8896 15.791L26.5247 14.6392C26.717 14.2906 26.5845 13.8552 26.2287 13.6668C25.8727 13.4784 25.4286 13.6084 25.2364 13.9569L24.6013 15.1087C24.409 15.4573 24.5415 15.8927 24.8973 16.0811C25.0079 16.1398 25.1271 16.1676 25.2447 16.1676Z" fill="black"/>
<path d="M32.7234 15.5286V14.2194C32.7234 13.823 32.3956 13.5018 31.9912 13.5018C31.5868 13.5018 31.259 13.823 31.259 14.2194V15.5286C31.259 15.9249 31.5868 16.2462 31.9912 16.2462C32.3956 16.2462 32.7234 15.9249 32.7234 15.5286Z" fill="black"/>
<path d="M38.7554 16.1579C38.8801 16.1579 39.0065 16.1266 39.1221 16.061C39.4719 15.8621 39.591 15.423 39.3881 15.0802L38.7179 13.9477C38.5149 13.6049 38.0669 13.4882 37.7171 13.687C37.3673 13.8858 37.2481 14.3249 37.4511 14.6677L38.1213 15.8003C38.2571 16.0297 38.5028 16.1579 38.7554 16.1579V16.1579Z" fill="black"/>
<path d="M57 30.1654V29.5332C57 28.1929 56.3111 27.0078 55.2626 26.2985C55.5094 26.1031 55.7319 25.873 55.9224 25.6091C56.5719 24.7089 56.7351 23.5495 56.359 22.5077C55.4508 19.9917 53.5633 16.3685 49.7288 13.3954C45.3076 9.96748 39.3464 8.17649 32.0105 8.07246C32.0035 8.07236 31.9964 8.07236 31.9894 8.07246C28.6738 8.11945 25.6024 8.517 22.8605 9.25401C22.4706 9.35881 22.2411 9.75368 22.348 10.1358C22.455 10.518 22.8578 10.7431 23.2479 10.6381C25.8676 9.93389 28.8121 9.55356 31.9999 9.50762C47.8411 9.73635 53.1965 18.0501 54.9782 22.9864C55.1992 23.5985 55.1074 24.2524 54.7265 24.7806C54.3487 25.3042 53.7563 25.6045 53.1013 25.6045H10.8983C10.2408 25.6045 9.64531 25.3025 9.26475 24.7757C8.88867 24.2554 8.79629 23.6137 9.01113 23.0154C10.3101 19.3982 13.293 14.4966 20.1269 11.6879C20.4998 11.5346 20.6754 11.1142 20.5189 10.7487C20.3625 10.3831 19.9332 10.2113 19.5605 10.3645C16.233 11.7321 13.4486 13.7079 11.285 16.2372C9.69287 18.0981 8.46309 20.2183 7.62979 22.5389C7.25518 23.5823 7.41543 24.6999 8.06973 25.6052C8.26025 25.8689 8.48682 26.1003 8.73916 26.2973C7.68955 27.0066 7 28.1922 7 29.5332V30.1654C7 32.0603 8.37588 33.646 10.1999 34.0137L10.1853 38.299C8.36865 38.6723 7 40.254 7 42.1435V42.7758C7 44.6695 8.37441 46.2545 10.197 46.6234C10.1479 47.3786 10.173 48.6042 10.6174 49.9677C11.8149 53.6427 15.0582 55.393 17.568 56.214C19.0153 56.6874 20.561 56.9276 22.1621 56.9276H41.838C43.4391 56.9276 44.9847 56.6874 46.432 56.214C48.9419 55.3929 52.1852 53.6427 53.3826 49.9677C53.827 48.6043 53.8521 47.3786 53.803 46.6234C55.6256 46.2546 57 44.6695 57 42.7758V42.1435C57 40.2489 55.6239 38.6645 53.8001 38.2968V34.0137C55.6241 33.6461 57 32.0603 57 30.1654ZM8.46445 42.7758V42.1435C8.46445 41.0531 9.1833 40.126 10.1803 39.7882L10.1788 40.2111C10.1788 41.2297 10.7617 42.1323 11.6999 42.5669C12.6436 43.004 13.7322 42.871 14.5407 42.2198C14.9189 41.9152 15.3794 41.6333 16.1806 41.6333C16.2648 41.6333 16.3442 41.6367 16.4217 41.6414V45.2694H11.0089C9.60586 45.2694 8.46445 44.1507 8.46445 42.7758ZM37.6434 37.1627H52.3356V40.2114C52.3356 40.6762 52.0805 41.0719 51.6532 41.2697C51.2204 41.4701 50.74 41.4109 50.3681 41.1114C49.8401 40.6862 49.0709 40.1981 47.7977 40.1981C46.2255 40.1981 45.4194 40.8238 44.7083 41.3759C44.0839 41.8606 43.5906 42.2435 42.5281 42.2435C41.4655 42.2435 40.9724 41.8606 40.3479 41.3759C39.6368 40.8239 38.8308 40.1981 37.2585 40.1981C35.6862 40.1981 34.845 40.8512 34.169 41.3759C33.5446 41.8606 33.0515 42.2435 31.9891 42.2435C30.9266 42.2435 30.4334 41.8606 29.8091 41.3759C29.1332 40.8512 28.2919 40.1981 26.7197 40.1981C25.1475 40.1981 24.3415 40.8238 23.6303 41.3759C23.1852 41.7215 22.805 42.014 22.2392 42.1539V38.1134C22.2392 37.5891 22.6743 37.1627 23.2093 37.1627H34.2099C34.6143 37.1627 34.9421 36.8414 34.9421 36.4451C34.9421 36.0488 34.6143 35.7275 34.2099 35.7275H23.2092C21.8667 35.7275 20.7746 36.7978 20.7746 38.1134V46.9507C20.7746 47.7312 20.1268 48.3662 19.3304 48.3662C18.534 48.3662 17.8861 47.7312 17.8861 46.9507V38.1134C17.8861 36.7978 16.7939 35.7275 15.4516 35.7275H11.6644V34.0942H52.3356V35.7275H37.6434C37.239 35.7275 36.9111 36.0488 36.9111 36.4451C36.9111 36.8414 37.239 37.1627 37.6434 37.1627ZM15.4515 37.1627C15.9864 37.1627 16.4217 37.5891 16.4217 38.1134V40.2041C16.3433 40.2006 16.2635 40.1981 16.1806 40.1981C14.9077 40.1981 14.1387 40.6859 13.6109 41.1109C13.2389 41.4105 12.7585 41.4697 12.3255 41.2692C11.8982 41.0714 11.6432 40.6757 11.6432 40.211V37.1627H15.4515ZM51.9876 49.5312C51.1763 52.0211 49.1511 53.8115 45.9683 54.8526C44.6707 55.2772 43.2811 55.4924 41.8379 55.4924H22.1621C20.7189 55.4924 19.3293 55.2772 18.0317 54.8526C11.7969 52.813 11.5357 48.3075 11.654 46.7045H16.4218V46.9506C16.4218 48.5224 17.7266 49.8012 19.3305 49.8012C20.9344 49.8012 22.2392 48.5225 22.2392 46.9506V46.7045H52.3423C52.3836 47.3174 52.3688 48.3614 51.9876 49.5312ZM55.5355 42.1435V42.7758C55.5355 44.1507 54.394 45.2694 52.991 45.2694H22.2391V43.6187C23.3128 43.4508 23.9585 42.9518 24.5395 42.5009C25.1639 42.0162 25.6571 41.6333 26.7196 41.6333C27.7821 41.6333 28.2753 42.0162 28.8996 42.5009C29.5756 43.0256 30.4168 43.6787 31.989 43.6787C33.5611 43.6787 34.3672 43.053 35.0783 42.5009C35.7027 42.0162 36.1959 41.6333 37.2584 41.6333C38.321 41.6333 38.8142 42.0162 39.4386 42.5009C40.1497 43.0529 40.9558 43.6787 42.528 43.6787C44.1003 43.6787 44.9063 43.053 45.6175 42.5009C46.2419 42.0162 46.7351 41.6333 47.7976 41.6333C48.599 41.6333 49.0597 41.9154 49.4381 42.2203C50.2465 42.8714 51.3351 43.0045 52.2788 42.5674C53.2171 42.1329 53.8 41.2301 53.8 40.2115V39.7801C54.8076 40.112 55.5355 41.0457 55.5355 42.1435ZM52.9911 32.6591H11.0089C9.60586 32.6591 8.46436 31.5404 8.46436 30.1654V29.5332C8.46436 28.1582 9.60586 27.0396 11.0089 27.0396H52.991C54.394 27.0396 55.5355 28.1582 55.5355 29.5332V30.1654C55.5355 31.5404 54.3941 32.6591 52.9911 32.6591Z" fill="black"/>
</g>
<path d="M61.75 1V17" stroke="black" stroke-width="1.5"/>
<line x1="46" y1="1.25" x2="62" y2="1.25" stroke="black" stroke-width="1.5"/>
<line x1="62.75" y1="46" x2="62.75" y2="62" stroke="black" stroke-width="1.5"/>
<line x1="6.44291e-09" y1="1.25" x2="16" y2="1.25" stroke="black" stroke-width="1.5"/>
<line x1="46" y1="61.25" x2="62" y2="61.25" stroke="black" stroke-width="1.5"/>
<line x1="6.44291e-09" y1="61.25" x2="16" y2="61.25" stroke="black" stroke-width="1.5"/>
<line x1="0.75" y1="1" x2="0.75" y2="17" stroke="black" stroke-width="1.5"/>
<line x1="0.75" y1="46" x2="0.75" y2="62" stroke="black" stroke-width="1.5"/>
<defs>
<clipPath id="clip0">
<rect width="50" height="49" fill="white" transform="translate(7 8)"/>
</clipPath>
</defs>
</svg>
