<svg width="64" height="62" viewBox="0 0 64 62" fill="none" xmlns="http://www.w3.org/2000/svg">
<g clip-path="url(#clip0)">
<path d="M25.2447 16.1676C25.505 16.1676 25.7571 16.0312 25.8896 15.791L26.5247 14.6392C26.717 14.2906 26.5845 13.8552 26.2287 13.6668C25.8727 13.4784 25.4286 13.6084 25.2364 13.9569L24.6013 15.1087C24.409 15.4573 24.5415 15.8927 24.8973 16.0811C25.0079 16.1398 25.1271 16.1676 25.2447 16.1676Z" fill="black"/>
<path d="M32.7234 15.5286V14.2194C32.7234 13.823 32.3956 13.5018 31.9912 13.5018C31.5868 13.5018 31.259 13.823 31.259 14.2194V15.5286C31.259 15.9249 31.5868 16.2462 31.9912 16.2462C32.3956 16.2462 32.7234 15.9249 32.7234 15.5286Z" fill="black"/>
<path d="M38.7554 16.1579C38.8801 16.1579 39.0065 16.1266 39.1221 16.061C39.4719 15.8621 39.591 15.423 39.3881 15.0802L38.7179 13.9477C38.5149 13.6049 38.0669 13.4882 37.7171 13.687C37.3673 13.8858 37.2481 14.3249 37.4511 14.6677L38.1213 15.8003C38.2571 16.0297 38.5028 16.1579 38.7554 16.1579V16.1579Z" fill="black"/>
<path d="M57 30.1654V29.5332C57 28.1929 56.3111 27.0078 55.2626 26.2985C55.5094 26.1031 55.7319 25.873 55.9224 25.6091C56.5719 24.7089 56.7351 23.5495 56.359 22.5077C55.4508 19.9917 53.5633 16.3685 49.7288 13.3954C45.3076 9.96748 39.3464 8.17649 32.0105 8.07246C32.0035 8.07236 31.9964 8.07236 31.9894 8.07246C28.6738 8.11945 25.6024 8.517 22.8605 9.25401C22.4706 9.35881 22.2411 9.75368 22.348 10.1358C22.455 10.518 22.8578 10.7431 23.2479 10.6381C25.8676 9.93389 28.8121 9.55356 31.9999 9.50762C47.8411 9.73635 53.1965 18.0501 54.9782 22.9864C55.1992 23.5985 55.1074 24.2524 54.7265 24.7806C54.3487 25.3042 53.7563 25.6045 53.1013 25.6045H10.8983C10.2408 25.6045 9.64531 25.3025 9.26475 24.7757C8.88867 24.2554 8.79629 23.6137 9.01113 23.0154C10.3101 19.3982 13.293 14.4966 20.1269 11.6879C20.4998 11.5346 20.6754 11.1142 20.5189 10.7487C20.3625 10.3831 19.9332 10.2113 19.5605 10.3645C16.233 11.7321 13.4486 13.7079 11.285 16.2372C9.69287 18.0981 8.46309 20.2183 7.62979 22.5389C7.25518 23.5823 7.41543 24.6999 8.06973 25.6052C8.26025 25.8689 8.48682 26.1003 8.73916 26.2973C7.68955 27.0066 7 28.1922 7 29.5332V30.1654C7 32.0603 8.37588 33.646 10.1999 34.0137L10.1853 38.299C8.36865 38.6723 7 40.254 7 42.1435V42.7758C7 44.6695 8.37441 46.2545 10.197 46.6234C10.1479 47.3786 10.173 48.6042 10.6174 49.9677C11.8149 53.6427 15.0582 55.393 17.568 56.214C19.0153 56.6874 20.561 56.9276 22.1621 56.9276H41.838C43.4391 56.9276 44.9847 56.6874 46.432 56.214C48.9419 55.3929 52.1852 53.6427 53.3826 49.9677C53.827 48.6043 53.8521 47.3786 53.803 46.6234C55.6256 46.2546 57 44.6695 57 42.7758V42.1435C57 40.2489 55.6239 38.6645 53.8001 38.2968V34.0137C55.6241 33.6461 57 32.0603 57 30.1654ZM8.46445 42.7758V42.1435C8.46445 41.0531 9.1833 40.126 10.1803 39.7882L10.1788 40.2111C10.1788 41.2297 10.7617 42.1323 11.6999 42.5669C12.6436 43.004 13.7322 42.871 14.5407 42.2198C14.9189 41.9152 15.3794 41.6333 16.1806 41.6333C16.2648 41.6333 16.3442 41.6367 16.4217 41.6414V45.2694H11.0089C9.60586 45.2694 8.46445 44.1507 8.46445 42.7758ZM37.6434 37.1627H52.3356V40.2114C52.3356 40.6762 52.0805 41.0719 51.6532 41.2697C51.2204 41.4701 50.74 41.4109 50.3681 41.1114C49.8401 40.6862 49.0709 40.1981 47.7977 40.1981C46.2255 40.1981 45.4194 40.8238 44.7083 41.3759C44.0839 41.8606 43.5906 42.2435 42.5281 42.2435C41.4655 42.2435 40.9724 41.8606 40.3479 41.3759C39.6368 40.8239 38.8308 40.1981 37.2585 40.1981C35.6862 40.1981 34.845 40.8512 34.169 41.3759C33.5446 41.8606 33.0515 42.2435 31.9891 42.2435C30.9266 42.2435 30.4334 41.8606 29.8091 41.3759C29.1332 40.8512 28.2919 40.1981 26.7197 40.1981C25.1475 40.1981 24.3415 40.8238 23.6303 41.3759C23.1852 41.7215 22.805 42.014 22.2392 42.1539V38.1134C22.2392 37.5891 22.6743 37.1627 23.2093 37.1627H34.2099C34.6143 37.1627 34.9421 36.8414 34.9421 36.4451C34.9421 36.0488 34.6143 35.7275 34.2099 35.7275H23.2092C21.8667 35.7275 20.7746 36.7978 20.7746 38.1134V46.9507C20.7746 47.7312 20.1268 48.3662 19.3304 48.3662C18.534 48.3662 17.8861 47.7312 17.8861 46.9507V38.1134C17.8861 36.7978 16.7939 35.7275 15.4516 35.7275H11.6644V34.0942H52.3356V35.7275H37.6434C37.239 35.7275 36.9111 36.0488 36.9111 36.4451C36.9111 36.8414 37.239 37.1627 37.6434 37.1627ZM15.4515 37.1627C15.9864 37.1627 16.4217 37.5891 16.4217 38.1134V40.2041C16.3433 40.2006 16.2635 40.1981 16.1806 40.1981C14.9077 40.1981 14.1387 40.6859 13.6109 41.1109C13.2389 41.4105 12.7585 41.4697 12.3255 41.2692C11.8982 41.0714 11.6432 40.6757 11.6432 40.211V37.1627H15.4515ZM51.9876 49.5312C51.1763 52.0211 49.1511 53.8115 45.9683 54.8526C44.6707 55.2772 43.2811 55.4924 41.8379 55.4924H22.1621C20.7189 55.4924 19.3293 55.2772 18.0317 54.8526C11.7969 52.813 11.5357 48.3075 11.654 46.7045H16.4218V46.9506C16.4218 48.5224 17.7266 49.8012 19.3305 49.8012C20.9344 49.8012 22.2392 48.5225 22.2392 46.9506V46.7045H52.3423C52.3836 47.3174 52.3688 48.3614 51.9876 49.5312ZM55.5355 42.1435V42.7758C55.5355 44.1507 54.394 45.2694 52.991 45.2694H22.2391V43.6187C23.3128 43.4508 23.9585 42.9518 24.5395 42.5009C25.1639 42.0162 25.6571 41.6333 26.7196 41.6333C27.7821 41.6333 28.2753 42.0162 28.8996 42.5009C29.5756 43.0256 30.4168 43.6787 31.989 43.6787C33.5611 43.6787 34.3672 43.053 35.0783 42.5009C35.7027 42.0162 36.1959 41.6333 37.2584 41.6333C38.321 41.6333 38.8142 42.0162 39.4386 42.5009C40.1497 43.0529 40.9558 43.6787 42.528 43.6787C44.1003 43.6787 44.9063 43.053 45.6175 42.5009C46.2419 42.0162 46.7351 41.6333 47.7976 41.6333C48.599 41.6333 49.0597 41.9154 49.4381 42.2203C50.2465 42.8714 51.3351 43.0045 52.2788 42.5674C53.2171 42.1329 53.8 41.2301 53.8 40.2115V39.7801C54.8076 40.112 55.5355 41.0457 55.5355 42.1435ZM52.9911 32.6591H11.0089C9.60586 32.6591 8.46436 31.5404 8.46436 30.1654V29.5332C8.46436 28.1582 9.60586 27.0396 11.0089 27.0396H52.991C54.394 27.0396 55.5355 28.1582 55.5355 29.5332V30.1654C55.5355 31.5404 54.3941 32.6591 52.9911 32.6591Z" fill="black"/>
</g>
<path d="M61.75 1V17" stroke="black" stroke-width="1.5"/>
<line x1="46" y1="1.25" x2="62" y2="1.25" stroke="black" stroke-width="1.5"/>
<line x1="62.75" y1="46" x2="62.75" y2="62" stroke="black" stroke-width="1.5"/>
<line x1="6.44291e-09" y1="1.25" x2="16" y2="1.25" stroke="black" stroke-width="1.5"/>
<line x1="46" y1="61.25" x2="62" y2="61.25" stroke="black" stroke-width="1.5"/>
<line x1="6.44291e-09" y1="61.25" x2="16" y2="61.25" stroke="black" stroke-width="1.5"/>
<line x1="0.75" y1="1" x2="0.75" y2="17" stroke="black" stroke-width="1.5"/>
<line x1="0.75" y1="46" x2="0.75" y2="62" stroke="black" stroke-width="1.5"/>
<defs>
<clipPath id="clip0">
<rect width="50" height="49" fill="white" transform="translate(7 8)"/>
</clipPath>
</defs>
</svg>
